<?xml version="1.0" encoding="utf-8" standalone="no"?>
<!DOCTYPE svg PUBLIC "-//W3C//DTD SVG 1.1//EN"
  "http://www.w3.org/Graphics/SVG/1.1/DTD/svg11.dtd">
<svg xmlns:xlink="http://www.w3.org/1999/xlink" width="360pt" height="216pt" viewBox="0 0 360 216" xmlns="http://www.w3.org/2000/svg" version="1.1">
 <metadata>
  <rdf:RDF xmlns:dc="http://purl.org/dc/elements/1.1/" xmlns:cc="http://creativecommons.org/ns#" xmlns:rdf="http://www.w3.org/1999/02/22-rdf-syntax-ns#">
   <cc:Work>
    <dc:type rdf:resource="http://purl.org/dc/dcmitype/StillImage"/>
    <dc:date>2022-11-22T12:29:13.328479</dc:date>
    <dc:format>image/svg+xml</dc:format>
    <dc:creator>
     <cc:Agent>
      <dc:title>Matplotlib v3.5.3, https://matplotlib.org/</dc:title>
     </cc:Agent>
    </dc:creator>
   </cc:Work>
  </rdf:RDF>
 </metadata>
 <defs>
  <style type="text/css">*{stroke-linejoin: round; stroke-linecap: butt}</style>
 </defs>
 <g id="figure_1">
  <g id="patch_1">
   <path d="M 0 216 
L 360 216 
L 360 0 
L 0 0 
z
" style="fill: #ffffff"/>
  </g>
  <g id="patch_2">
   <path d="M 101.34 192.24 
L 267.66 192.24 
L 267.66 25.92 
L 101.34 25.92 
z
" style="fill: #ffffff"/>
  </g>
  <g id="pane3d_1">
   <g id="patch_3">
    <path d="M 113.898307 151.230818 
L 168.822603 105.192184 
L 168.059102 38.796244 
L 110.506396 80.795588 
" style="fill: #f2f2f2; opacity: 0.5; stroke: #f2f2f2; stroke-linejoin: miter"/>
   </g>
  </g>
  <g id="pane3d_2">
   <g id="patch_4">
    <path d="M 168.822603 105.192184 
L 256.9565 130.809229 
L 260.101688 62.126357 
L 168.059102 38.796244 
" style="fill: #e6e6e6; opacity: 0.5; stroke: #e6e6e6; stroke-linejoin: miter"/>
   </g>
  </g>
  <g id="pane3d_3">
   <g id="patch_5">
    <path d="M 113.898307 151.230818 
L 207.324543 181.743827 
L 256.9565 130.809229 
L 168.822603 105.192184 
" style="fill: #ececec; opacity: 0.5; stroke: #ececec; stroke-linejoin: miter"/>
   </g>
  </g>
  <g id="axis3d_1">
   <g id="line2d_1">
    <path d="M 113.898307 151.230818 
L 207.324543 181.743827 
" style="fill: none; stroke: #000000; stroke-width: 0.8; stroke-linecap: square"/>
   </g>
   <g id="text_1">
    <!-- N -->
    <g transform="translate(139.266263 204.293156)scale(0.1 -0.1)">
     <defs>
      <path id="DejaVuSans-4e" d="M 628 4666 
L 1478 4666 
L 3547 763 
L 3547 4666 
L 4159 4666 
L 4159 0 
L 3309 0 
L 1241 3903 
L 1241 0 
L 628 0 
L 628 4666 
z
" transform="scale(0.015625)"/>
     </defs>
     <use xlink:href="#DejaVuSans-4e"/>
    </g>
   </g>
   <g id="Line3DCollection_1">
    <path d="M 119.55669 153.078846 
L 174.182637 106.750135 
L 173.645763 40.2123 
" style="fill: none; stroke: #b0b0b0; stroke-width: 0.8"/>
    <path d="M 139.241853 159.50802 
L 192.807505 112.163648 
L 193.069251 45.135588 
" style="fill: none; stroke: #b0b0b0; stroke-width: 0.8"/>
    <path d="M 159.379926 166.085115 
L 211.82503 117.691292 
L 212.920116 50.167203 
" style="fill: none; stroke: #b0b0b0; stroke-width: 0.8"/>
    <path d="M 179.986723 172.815295 
L 231.247762 123.336713 
L 233.212618 55.310761 
" style="fill: none; stroke: #b0b0b0; stroke-width: 0.8"/>
    <path d="M 201.078801 179.703967 
L 251.08879 129.103717 
L 253.961662 60.570039 
" style="fill: none; stroke: #b0b0b0; stroke-width: 0.8"/>
   </g>
   <g id="xtick_1">
    <g id="line2d_2">
     <path d="M 120.03237 152.675418 
L 118.60329 153.887433 
" style="fill: none; stroke: #000000; stroke-width: 0.8; stroke-linecap: square"/>
    </g>
    <g id="text_2">
     <!-- 0.0 -->
     <g transform="translate(104.059248 176.423114)scale(0.1 -0.1)">
      <defs>
       <path id="DejaVuSans-30" d="M 2034 4250 
Q 1547 4250 1301 3770 
Q 1056 3291 1056 2328 
Q 1056 1369 1301 889 
Q 1547 409 2034 409 
Q 2525 409 2770 889 
Q 3016 1369 3016 2328 
Q 3016 3291 2770 3770 
Q 2525 4250 2034 4250 
z
M 2034 4750 
Q 2819 4750 3233 4129 
Q 3647 3509 3647 2328 
Q 3647 1150 3233 529 
Q 2819 -91 2034 -91 
Q 1250 -91 836 529 
Q 422 1150 422 2328 
Q 422 3509 836 4129 
Q 1250 4750 2034 4750 
z
" transform="scale(0.015625)"/>
       <path id="DejaVuSans-2e" d="M 684 794 
L 1344 794 
L 1344 0 
L 684 0 
L 684 794 
z
" transform="scale(0.015625)"/>
      </defs>
      <use xlink:href="#DejaVuSans-30"/>
      <use xlink:href="#DejaVuSans-2e" x="63.623047"/>
      <use xlink:href="#DejaVuSans-30" x="95.410156"/>
     </g>
    </g>
   </g>
   <g id="xtick_2">
    <g id="line2d_3">
     <path d="M 139.70873 159.095367 
L 138.306071 160.335117 
" style="fill: none; stroke: #000000; stroke-width: 0.8; stroke-linecap: square"/>
    </g>
    <g id="text_3">
     <!-- 2.5 -->
     <g transform="translate(123.776758 183.071208)scale(0.1 -0.1)">
      <defs>
       <path id="DejaVuSans-32" d="M 1228 531 
L 3431 531 
L 3431 0 
L 469 0 
L 469 531 
Q 828 903 1448 1529 
Q 2069 2156 2228 2338 
Q 2531 2678 2651 2914 
Q 2772 3150 2772 3378 
Q 2772 3750 2511 3984 
Q 2250 4219 1831 4219 
Q 1534 4219 1204 4116 
Q 875 4013 500 3803 
L 500 4441 
Q 881 4594 1212 4672 
Q 1544 4750 1819 4750 
Q 2544 4750 2975 4387 
Q 3406 4025 3406 3419 
Q 3406 3131 3298 2873 
Q 3191 2616 2906 2266 
Q 2828 2175 2409 1742 
Q 1991 1309 1228 531 
z
" transform="scale(0.015625)"/>
       <path id="DejaVuSans-35" d="M 691 4666 
L 3169 4666 
L 3169 4134 
L 1269 4134 
L 1269 2991 
Q 1406 3038 1543 3061 
Q 1681 3084 1819 3084 
Q 2600 3084 3056 2656 
Q 3513 2228 3513 1497 
Q 3513 744 3044 326 
Q 2575 -91 1722 -91 
Q 1428 -91 1123 -41 
Q 819 9 494 109 
L 494 744 
Q 775 591 1075 516 
Q 1375 441 1709 441 
Q 2250 441 2565 725 
Q 2881 1009 2881 1497 
Q 2881 1984 2565 2268 
Q 2250 2553 1709 2553 
Q 1456 2553 1204 2497 
Q 953 2441 691 2322 
L 691 4666 
z
" transform="scale(0.015625)"/>
      </defs>
      <use xlink:href="#DejaVuSans-32"/>
      <use xlink:href="#DejaVuSans-2e" x="63.623047"/>
      <use xlink:href="#DejaVuSans-35" x="95.410156"/>
     </g>
    </g>
   </g>
   <g id="xtick_3">
    <g id="line2d_4">
     <path d="M 159.837469 165.662916 
L 158.462832 166.931365 
" style="fill: none; stroke: #000000; stroke-width: 0.8; stroke-linecap: square"/>
    </g>
    <g id="text_4">
     <!-- 5.0 -->
     <g transform="translate(143.950689 189.873192)scale(0.1 -0.1)">
      <use xlink:href="#DejaVuSans-35"/>
      <use xlink:href="#DejaVuSans-2e" x="63.623047"/>
      <use xlink:href="#DejaVuSans-30" x="95.410156"/>
     </g>
    </g>
   </g>
   <g id="xtick_4">
    <g id="line2d_5">
     <path d="M 180.434367 172.383216 
L 179.089446 173.681371 
" style="fill: none; stroke: #000000; stroke-width: 0.8; stroke-linecap: square"/>
    </g>
    <g id="text_5">
     <!-- 7.5 -->
     <g transform="translate(164.597076 196.834472)scale(0.1 -0.1)">
      <defs>
       <path id="DejaVuSans-37" d="M 525 4666 
L 3525 4666 
L 3525 4397 
L 1831 0 
L 1172 0 
L 2766 4134 
L 525 4134 
L 525 4666 
z
" transform="scale(0.015625)"/>
      </defs>
      <use xlink:href="#DejaVuSans-37"/>
      <use xlink:href="#DejaVuSans-2e" x="63.623047"/>
      <use xlink:href="#DejaVuSans-35" x="95.410156"/>
     </g>
    </g>
   </g>
   <g id="xtick_5">
    <g id="line2d_6">
     <path d="M 201.515951 179.261657 
L 200.202535 180.590575 
" style="fill: none; stroke: #000000; stroke-width: 0.8; stroke-linecap: square"/>
    </g>
    <g id="text_6">
     <!-- 10.0 -->
     <g transform="translate(182.551462 203.960712)scale(0.1 -0.1)">
      <defs>
       <path id="DejaVuSans-31" d="M 794 531 
L 1825 531 
L 1825 4091 
L 703 3866 
L 703 4441 
L 1819 4666 
L 2450 4666 
L 2450 531 
L 3481 531 
L 3481 0 
L 794 0 
L 794 531 
z
" transform="scale(0.015625)"/>
      </defs>
      <use xlink:href="#DejaVuSans-31"/>
      <use xlink:href="#DejaVuSans-30" x="63.623047"/>
      <use xlink:href="#DejaVuSans-2e" x="127.246094"/>
      <use xlink:href="#DejaVuSans-30" x="159.033203"/>
     </g>
    </g>
   </g>
  </g>
  <g id="axis3d_2">
   <g id="line2d_7">
    <path d="M 256.9565 130.809229 
L 207.324543 181.743827 
" style="fill: none; stroke: #000000; stroke-width: 0.8; stroke-linecap: square"/>
   </g>
   <g id="text_7">
    <!-- M -->
    <g transform="translate(255.927657 185.928356)scale(0.1 -0.1)">
     <defs>
      <path id="DejaVuSans-4d" d="M 628 4666 
L 1569 4666 
L 2759 1491 
L 3956 4666 
L 4897 4666 
L 4897 0 
L 4281 0 
L 4281 4097 
L 3078 897 
L 2444 897 
L 1241 4097 
L 1241 0 
L 628 0 
L 628 4666 
z
" transform="scale(0.015625)"/>
     </defs>
     <use xlink:href="#DejaVuSans-4d"/>
    </g>
   </g>
   <g id="Line3DCollection_2">
    <path d="M 114.486308 77.891229 
L 117.683055 148.058367 
L 210.75869 178.219547 
" style="fill: none; stroke: #b0b0b0; stroke-width: 0.8"/>
    <path d="M 135.510916 62.548429 
L 137.709649 131.271679 
L 228.895326 159.606897 
" style="fill: none; stroke: #b0b0b0; stroke-width: 0.8"/>
    <path d="M 155.259143 48.137072 
L 156.571107 115.461631 
L 245.923451 142.131852 
" style="fill: none; stroke: #b0b0b0; stroke-width: 0.8"/>
   </g>
   <g id="xtick_6">
    <g id="line2d_8">
     <path d="M 209.974339 177.965378 
L 212.329421 178.728542 
" style="fill: none; stroke: #000000; stroke-width: 0.8; stroke-linecap: square"/>
    </g>
    <g id="text_8">
     <!-- 0 -->
     <g transform="translate(220.462704 199.246101)scale(0.1 -0.1)">
      <use xlink:href="#DejaVuSans-30"/>
     </g>
    </g>
   </g>
   <g id="xtick_7">
    <g id="line2d_9">
     <path d="M 228.128128 159.368497 
L 230.431642 160.084295 
" style="fill: none; stroke: #000000; stroke-width: 0.8; stroke-linecap: square"/>
    </g>
    <g id="text_9">
     <!-- 2 -->
     <g transform="translate(238.209609 180.192485)scale(0.1 -0.1)">
      <use xlink:href="#DejaVuSans-32"/>
     </g>
    </g>
   </g>
   <g id="xtick_8">
    <g id="line2d_10">
     <path d="M 245.172807 141.907797 
L 247.426561 142.580506 
" style="fill: none; stroke: #000000; stroke-width: 0.8; stroke-linecap: square"/>
    </g>
    <g id="text_10">
     <!-- 4 -->
     <g transform="translate(254.870848 162.304472)scale(0.1 -0.1)">
      <defs>
       <path id="DejaVuSans-34" d="M 2419 4116 
L 825 1625 
L 2419 1625 
L 2419 4116 
z
M 2253 4666 
L 3047 4666 
L 3047 1625 
L 3713 1625 
L 3713 1100 
L 3047 1100 
L 3047 0 
L 2419 0 
L 2419 1100 
L 313 1100 
L 313 1709 
L 2253 4666 
z
" transform="scale(0.015625)"/>
      </defs>
      <use xlink:href="#DejaVuSans-34"/>
     </g>
    </g>
   </g>
  </g>
  <g id="axis3d_3">
   <g id="line2d_11">
    <path d="M 256.9565 130.809229 
L 260.101688 62.126357 
" style="fill: none; stroke: #000000; stroke-width: 0.8; stroke-linecap: square"/>
   </g>
   <g id="text_11">
    <!-- Neurons -->
    <g transform="translate(300.517056 112.698481)rotate(-87.378092)scale(0.1 -0.1)">
     <defs>
      <path id="DejaVuSans-65" d="M 3597 1894 
L 3597 1613 
L 953 1613 
Q 991 1019 1311 708 
Q 1631 397 2203 397 
Q 2534 397 2845 478 
Q 3156 559 3463 722 
L 3463 178 
Q 3153 47 2828 -22 
Q 2503 -91 2169 -91 
Q 1331 -91 842 396 
Q 353 884 353 1716 
Q 353 2575 817 3079 
Q 1281 3584 2069 3584 
Q 2775 3584 3186 3129 
Q 3597 2675 3597 1894 
z
M 3022 2063 
Q 3016 2534 2758 2815 
Q 2500 3097 2075 3097 
Q 1594 3097 1305 2825 
Q 1016 2553 972 2059 
L 3022 2063 
z
" transform="scale(0.015625)"/>
      <path id="DejaVuSans-75" d="M 544 1381 
L 544 3500 
L 1119 3500 
L 1119 1403 
Q 1119 906 1312 657 
Q 1506 409 1894 409 
Q 2359 409 2629 706 
Q 2900 1003 2900 1516 
L 2900 3500 
L 3475 3500 
L 3475 0 
L 2900 0 
L 2900 538 
Q 2691 219 2414 64 
Q 2138 -91 1772 -91 
Q 1169 -91 856 284 
Q 544 659 544 1381 
z
M 1991 3584 
L 1991 3584 
z
" transform="scale(0.015625)"/>
      <path id="DejaVuSans-72" d="M 2631 2963 
Q 2534 3019 2420 3045 
Q 2306 3072 2169 3072 
Q 1681 3072 1420 2755 
Q 1159 2438 1159 1844 
L 1159 0 
L 581 0 
L 581 3500 
L 1159 3500 
L 1159 2956 
Q 1341 3275 1631 3429 
Q 1922 3584 2338 3584 
Q 2397 3584 2469 3576 
Q 2541 3569 2628 3553 
L 2631 2963 
z
" transform="scale(0.015625)"/>
      <path id="DejaVuSans-6f" d="M 1959 3097 
Q 1497 3097 1228 2736 
Q 959 2375 959 1747 
Q 959 1119 1226 758 
Q 1494 397 1959 397 
Q 2419 397 2687 759 
Q 2956 1122 2956 1747 
Q 2956 2369 2687 2733 
Q 2419 3097 1959 3097 
z
M 1959 3584 
Q 2709 3584 3137 3096 
Q 3566 2609 3566 1747 
Q 3566 888 3137 398 
Q 2709 -91 1959 -91 
Q 1206 -91 779 398 
Q 353 888 353 1747 
Q 353 2609 779 3096 
Q 1206 3584 1959 3584 
z
" transform="scale(0.015625)"/>
      <path id="DejaVuSans-6e" d="M 3513 2113 
L 3513 0 
L 2938 0 
L 2938 2094 
Q 2938 2591 2744 2837 
Q 2550 3084 2163 3084 
Q 1697 3084 1428 2787 
Q 1159 2491 1159 1978 
L 1159 0 
L 581 0 
L 581 3500 
L 1159 3500 
L 1159 2956 
Q 1366 3272 1645 3428 
Q 1925 3584 2291 3584 
Q 2894 3584 3203 3211 
Q 3513 2838 3513 2113 
z
" transform="scale(0.015625)"/>
      <path id="DejaVuSans-73" d="M 2834 3397 
L 2834 2853 
Q 2591 2978 2328 3040 
Q 2066 3103 1784 3103 
Q 1356 3103 1142 2972 
Q 928 2841 928 2578 
Q 928 2378 1081 2264 
Q 1234 2150 1697 2047 
L 1894 2003 
Q 2506 1872 2764 1633 
Q 3022 1394 3022 966 
Q 3022 478 2636 193 
Q 2250 -91 1575 -91 
Q 1294 -91 989 -36 
Q 684 19 347 128 
L 347 722 
Q 666 556 975 473 
Q 1284 391 1588 391 
Q 1994 391 2212 530 
Q 2431 669 2431 922 
Q 2431 1156 2273 1281 
Q 2116 1406 1581 1522 
L 1381 1569 
Q 847 1681 609 1914 
Q 372 2147 372 2553 
Q 372 3047 722 3315 
Q 1072 3584 1716 3584 
Q 2034 3584 2315 3537 
Q 2597 3491 2834 3397 
z
" transform="scale(0.015625)"/>
     </defs>
     <use xlink:href="#DejaVuSans-4e"/>
     <use xlink:href="#DejaVuSans-65" x="74.804688"/>
     <use xlink:href="#DejaVuSans-75" x="136.328125"/>
     <use xlink:href="#DejaVuSans-72" x="199.707031"/>
     <use xlink:href="#DejaVuSans-6f" x="238.570312"/>
     <use xlink:href="#DejaVuSans-6e" x="299.751953"/>
     <use xlink:href="#DejaVuSans-73" x="363.130859"/>
    </g>
   </g>
   <g id="Line3DCollection_3">
    <path d="M 257.016759 129.493341 
L 168.807945 103.917475 
L 113.833429 149.883587 
" style="fill: none; stroke: #b0b0b0; stroke-width: 0.8"/>
    <path d="M 257.600545 116.744936 
L 168.665997 91.573351 
L 113.204671 136.827022 
" style="fill: none; stroke: #b0b0b0; stroke-width: 0.8"/>
    <path d="M 258.194113 103.782933 
L 168.521785 79.032323 
L 112.564975 123.543318 
" style="fill: none; stroke: #b0b0b0; stroke-width: 0.8"/>
    <path d="M 258.79771 90.601917 
L 168.375255 66.289642 
L 111.914053 110.026496 
" style="fill: none; stroke: #b0b0b0; stroke-width: 0.8"/>
    <path d="M 259.411592 77.196292 
L 168.226349 53.340404 
L 111.251606 96.270364 
" style="fill: none; stroke: #b0b0b0; stroke-width: 0.8"/>
    <path d="M 260.036026 63.560266 
L 168.075009 40.179546 
L 110.577327 82.268511 
" style="fill: none; stroke: #b0b0b0; stroke-width: 0.8"/>
   </g>
   <g id="xtick_9">
    <g id="line2d_12">
     <path d="M 256.276414 129.27868 
L 258.49921 129.923173 
" style="fill: none; stroke: #000000; stroke-width: 0.8; stroke-linecap: square"/>
    </g>
    <g id="text_12">
     <!-- 0 -->
     <g transform="translate(272.066649 134.495544)scale(0.1 -0.1)">
      <use xlink:href="#DejaVuSans-30"/>
     </g>
    </g>
   </g>
   <g id="xtick_10">
    <g id="line2d_13">
     <path d="M 256.853819 116.533587 
L 259.09579 117.168143 
" style="fill: none; stroke: #000000; stroke-width: 0.8; stroke-linecap: square"/>
    </g>
    <g id="text_13">
     <!-- 2 -->
     <g transform="translate(272.798345 121.787278)scale(0.1 -0.1)">
      <use xlink:href="#DejaVuSans-32"/>
     </g>
    </g>
   </g>
   <g id="xtick_11">
    <g id="line2d_14">
     <path d="M 257.440895 103.575036 
L 259.702373 104.19923 
" style="fill: none; stroke: #000000; stroke-width: 0.8; stroke-linecap: square"/>
    </g>
    <g id="text_14">
     <!-- 4 -->
     <g transform="translate(273.54224 108.867123)scale(0.1 -0.1)">
      <use xlink:href="#DejaVuSans-34"/>
     </g>
    </g>
   </g>
   <g id="xtick_12">
    <g id="line2d_15">
     <path d="M 258.037885 90.39762 
L 260.319213 91.011011 
" style="fill: none; stroke: #000000; stroke-width: 0.8; stroke-linecap: square"/>
    </g>
    <g id="text_15">
     <!-- 6 -->
     <g transform="translate(274.298642 95.729736)scale(0.1 -0.1)">
      <defs>
       <path id="DejaVuSans-36" d="M 2113 2584 
Q 1688 2584 1439 2293 
Q 1191 2003 1191 1497 
Q 1191 994 1439 701 
Q 1688 409 2113 409 
Q 2538 409 2786 701 
Q 3034 994 3034 1497 
Q 3034 2003 2786 2293 
Q 2538 2584 2113 2584 
z
M 3366 4563 
L 3366 3988 
Q 3128 4100 2886 4159 
Q 2644 4219 2406 4219 
Q 1781 4219 1451 3797 
Q 1122 3375 1075 2522 
Q 1259 2794 1537 2939 
Q 1816 3084 2150 3084 
Q 2853 3084 3261 2657 
Q 3669 2231 3669 1497 
Q 3669 778 3244 343 
Q 2819 -91 2113 -91 
Q 1303 -91 875 529 
Q 447 1150 447 2328 
Q 447 3434 972 4092 
Q 1497 4750 2381 4750 
Q 2619 4750 2861 4703 
Q 3103 4656 3366 4563 
z
" transform="scale(0.015625)"/>
      </defs>
      <use xlink:href="#DejaVuSans-36"/>
     </g>
    </g>
   </g>
   <g id="xtick_13">
    <g id="line2d_16">
     <path d="M 258.645045 76.995748 
L 260.946574 77.597874 
" style="fill: none; stroke: #000000; stroke-width: 0.8; stroke-linecap: square"/>
    </g>
    <g id="text_16">
     <!-- 8 -->
     <g transform="translate(275.06787 82.369592)scale(0.1 -0.1)">
      <defs>
       <path id="DejaVuSans-38" d="M 2034 2216 
Q 1584 2216 1326 1975 
Q 1069 1734 1069 1313 
Q 1069 891 1326 650 
Q 1584 409 2034 409 
Q 2484 409 2743 651 
Q 3003 894 3003 1313 
Q 3003 1734 2745 1975 
Q 2488 2216 2034 2216 
z
M 1403 2484 
Q 997 2584 770 2862 
Q 544 3141 544 3541 
Q 544 4100 942 4425 
Q 1341 4750 2034 4750 
Q 2731 4750 3128 4425 
Q 3525 4100 3525 3541 
Q 3525 3141 3298 2862 
Q 3072 2584 2669 2484 
Q 3125 2378 3379 2068 
Q 3634 1759 3634 1313 
Q 3634 634 3220 271 
Q 2806 -91 2034 -91 
Q 1263 -91 848 271 
Q 434 634 434 1313 
Q 434 1759 690 2068 
Q 947 2378 1403 2484 
z
M 1172 3481 
Q 1172 3119 1398 2916 
Q 1625 2713 2034 2713 
Q 2441 2713 2670 2916 
Q 2900 3119 2900 3481 
Q 2900 3844 2670 4047 
Q 2441 4250 2034 4250 
Q 1625 4250 1398 4047 
Q 1172 3844 1172 3481 
z
" transform="scale(0.015625)"/>
      </defs>
      <use xlink:href="#DejaVuSans-38"/>
     </g>
    </g>
   </g>
   <g id="xtick_14">
    <g id="line2d_17">
     <path d="M 259.262636 63.363635 
L 261.584725 63.954017 
" style="fill: none; stroke: #000000; stroke-width: 0.8; stroke-linecap: square"/>
    </g>
    <g id="text_17">
     <!-- 10 -->
     <g transform="translate(272.669003 68.780976)scale(0.1 -0.1)">
      <use xlink:href="#DejaVuSans-31"/>
      <use xlink:href="#DejaVuSans-30" x="63.623047"/>
     </g>
    </g>
   </g>
  </g>
  <g id="axes_1">
   <g id="Poly3DCollection_1">
    <path d="M 161.979525 115.788056 
L 170.961593 108.189167 
L 178.396904 110.360227 
L 169.485842 118.023118 
z
" clip-path="url(#p7fdb246682)" style="fill: #113f60"/>
    <path d="M 169.485842 118.023118 
L 178.396904 110.360227 
L 185.894512 112.549478 
L 177.055978 120.277182 
z
" clip-path="url(#p7fdb246682)" style="fill: #113f60"/>
    <path d="M 177.055978 120.277182 
L 185.894512 112.549478 
L 193.455204 114.757149 
L 184.69075 122.550492 
z
" clip-path="url(#p7fdb246682)" style="fill: #113f60"/>
    <path d="M 184.69075 122.550492 
L 193.455204 114.757149 
L 201.079779 116.983473 
L 192.39099 124.843296 
z
" clip-path="url(#p7fdb246682)" style="fill: #113f60"/>
    <path d="M 170.961593 108.189167 
L 170.311089 44.078016 
L 178.051297 46.0604 
L 178.396904 110.360227 
z
" clip-path="url(#p7fdb246682)" style="fill: #0d324b"/>
    <path d="M 161.979525 115.788056 
L 161.67752 96.910311 
L 169.274463 99.091854 
L 169.485842 118.023118 
z
" clip-path="url(#p7fdb246682)" style="fill: #0d324b"/>
    <path d="M 152.731262 123.612147 
L 161.979525 115.788056 
L 169.485842 118.023118 
L 160.309556 125.914083 
z
" clip-path="url(#p7fdb246682)" style="fill: #113f60"/>
    <path d="M 201.079779 116.983473 
L 201.254936 98.077076 
L 209.039336 100.268652 
L 208.76905 119.228689 
z
" clip-path="url(#p7fdb246682)" style="fill: #0d324b"/>
    <path d="M 192.39099 124.843296 
L 201.079779 116.983473 
L 208.76905 119.228689 
L 200.157542 127.155845 
z
" clip-path="url(#p7fdb246682)" style="fill: #113f60"/>
    <path d="M 178.396904 110.360227 
L 178.051297 46.0604 
L 185.859052 48.060084 
L 185.894512 112.549478 
z
" clip-path="url(#p7fdb246682)" style="fill: #0d324b"/>
    <path d="M 161.979525 115.788056 
L 160.943363 51.019506 
L 170.311089 44.078016 
L 170.961593 108.189167 
z
" clip-path="url(#p7fdb246682)" style="fill: #1b699f"/>
    <path d="M 152.731262 123.612147 
L 152.310269 104.54804 
L 161.67752 96.910311 
L 161.979525 115.788056 
z
" clip-path="url(#p7fdb246682)" style="fill: #1b699f"/>
    <path d="M 160.309556 125.914083 
L 169.485842 118.023118 
L 177.055978 120.277182 
L 167.953244 128.235882 
z
" clip-path="url(#p7fdb246682)" style="fill: #113f60"/>
    <path d="M 185.894512 112.549478 
L 185.86273 54.749283 
L 193.706192 56.787302 
L 193.455204 114.757149 
z
" clip-path="url(#p7fdb246682)" style="fill: #0d324b"/>
    <path d="M 193.455204 114.757149 
L 193.648807 70.041311 
L 201.49525 72.137786 
L 201.079779 116.983473 
z
" clip-path="url(#p7fdb246682)" style="fill: #0d324b"/>
    <path d="M 208.76905 119.228689 
L 209.039336 100.268652 
L 216.890888 102.479132 
L 216.523845 121.493036 
z
" clip-path="url(#p7fdb246682)" style="fill: #0d324b"/>
    <path d="M 192.39099 124.843296 
L 192.460996 105.750116 
L 201.254936 98.077076 
L 201.079779 116.983473 
z
" clip-path="url(#p7fdb246682)" style="fill: #1b699f"/>
    <path d="M 200.157542 127.155845 
L 208.76905 119.228689 
L 216.523845 121.493036 
L 207.991268 129.488395 
z
" clip-path="url(#p7fdb246682)" style="fill: #113f60"/>
    <path d="M 169.485842 118.023118 
L 178.396904 110.360227 
L 178.051297 46.0604 
L 168.760519 53.062797 
z
" clip-path="url(#p7fdb246682)" style="fill: #0d324b"/>
    <path d="M 169.485842 118.023118 
L 168.760519 53.062797 
L 178.051297 46.0604 
L 178.396904 110.360227 
z
" clip-path="url(#p7fdb246682)" style="fill: #1b699f"/>
    <path d="M 160.309556 125.914083 
L 169.485842 118.023118 
L 169.274463 99.091854 
L 159.98093 106.795672 
z
" clip-path="url(#p7fdb246682)" style="fill: #0d324b"/>
    <path d="M 167.953244 128.235882 
L 177.055978 120.277182 
L 184.69075 122.550492 
L 175.663175 130.577803 
z
" clip-path="url(#p7fdb246682)" style="fill: #113f60"/>
    <path d="M 216.523845 121.493036 
L 216.890888 102.479132 
L 224.810464 104.708764 
L 224.345004 123.776762 
z
" clip-path="url(#p7fdb246682)" style="fill: #0d324b"/>
    <path d="M 177.055978 120.277182 
L 176.689393 61.885935 
L 185.86273 54.749283 
L 185.894512 112.549478 
z
" clip-path="url(#p7fdb246682)" style="fill: #1b699f"/>
    <path d="M 184.69075 122.550492 
L 184.63048 77.38235 
L 193.648807 70.041311 
L 193.455204 114.757149 
z
" clip-path="url(#p7fdb246682)" style="fill: #1b699f"/>
    <path d="M 200.157542 127.155845 
L 208.76905 119.228689 
L 209.039336 100.268652 
L 200.324618 108.008239 
z
" clip-path="url(#p7fdb246682)" style="fill: #0d324b"/>
    <path d="M 200.157542 127.155845 
L 200.324618 108.008239 
L 209.039336 100.268652 
L 208.76905 119.228689 
z
" clip-path="url(#p7fdb246682)" style="fill: #1b699f"/>
    <path d="M 207.991268 129.488395 
L 216.523845 121.493036 
L 224.345004 123.776762 
L 215.893042 131.841207 
z
" clip-path="url(#p7fdb246682)" style="fill: #113f60"/>
    <path d="M 169.485842 118.023118 
L 168.984437 73.116969 
L 176.773233 75.240329 
L 177.055978 120.277182 
z
" clip-path="url(#p7fdb246682)" style="fill: #0d324b"/>
    <path d="M 152.310269 104.54804 
L 159.98093 106.795672 
L 169.274463 99.091854 
L 161.67752 96.910311 
z
" clip-path="url(#p7fdb246682)" style="fill: #185b8a"/>
    <path d="M 177.055978 120.277182 
L 185.894512 112.549478 
L 185.859052 48.060084 
L 176.646942 55.124195 
z
" clip-path="url(#p7fdb246682)" style="fill: #0d324b"/>
    <path d="M 175.663175 130.577803 
L 184.69075 122.550492 
L 192.39099 124.843296 
L 183.440215 132.940109 
z
" clip-path="url(#p7fdb246682)" style="fill: #113f60"/>
    <path d="M 161.979525 115.788056 
L 169.485842 118.023118 
L 168.760519 53.062797 
L 160.943363 51.019506 
z
" clip-path="url(#p7fdb246682)" style="fill: #1b699f"/>
    <path d="M 177.055978 120.277182 
L 176.814631 81.834386 
L 184.639306 83.996333 
L 184.69075 122.550492 
z
" clip-path="url(#p7fdb246682)" style="fill: #0d324b"/>
    <path d="M 152.731262 123.612147 
L 160.309556 125.914083 
L 159.98093 106.795672 
L 152.310269 104.54804 
z
" clip-path="url(#p7fdb246682)" style="fill: #1b699f"/>
    <path d="M 192.460996 105.750116 
L 200.324618 108.008239 
L 209.039336 100.268652 
L 201.254936 98.077076 
z
" clip-path="url(#p7fdb246682)" style="fill: #185b8a"/>
    <path d="M 184.69075 122.550492 
L 193.455204 114.757149 
L 193.706192 56.787302 
L 184.612606 63.986864 
z
" clip-path="url(#p7fdb246682)" style="fill: #0d324b"/>
    <path d="M 192.39099 124.843296 
L 201.079779 116.983473 
L 201.49525 72.137786 
L 192.557086 79.54328 
z
" clip-path="url(#p7fdb246682)" style="fill: #0d324b"/>
    <path d="M 143.204794 131.671602 
L 152.731262 123.612147 
L 160.309556 125.914083 
L 150.856026 134.043458 
z
" clip-path="url(#p7fdb246682)" style="fill: #113f60"/>
    <path d="M 207.991268 129.488395 
L 216.523845 121.493036 
L 216.890888 102.479132 
L 208.257104 110.286138 
z
" clip-path="url(#p7fdb246682)" style="fill: #0d324b"/>
    <path d="M 207.991268 129.488395 
L 208.257104 110.286138 
L 216.890888 102.479132 
L 216.523845 121.493036 
z
" clip-path="url(#p7fdb246682)" style="fill: #1b699f"/>
    <path d="M 215.893042 131.841207 
L 224.345004 123.776762 
L 232.233384 126.080115 
L 223.863755 134.214546 
z
" clip-path="url(#p7fdb246682)" style="fill: #113f60"/>
    <path d="M 192.39099 124.843296 
L 200.157542 127.155845 
L 200.324618 108.008239 
L 192.460996 105.750116 
z
" clip-path="url(#p7fdb246682)" style="fill: #1b699f"/>
    <path d="M 160.309556 125.914083 
L 159.52984 80.552665 
L 168.984437 73.116969 
L 169.485842 118.023118 
z
" clip-path="url(#p7fdb246682)" style="fill: #1b699f"/>
    <path d="M 183.440215 132.940109 
L 192.39099 124.843296 
L 200.157542 127.155845 
L 191.285243 135.323066 
z
" clip-path="url(#p7fdb246682)" style="fill: #113f60"/>
    <path d="M 169.485842 118.023118 
L 177.055978 120.277182 
L 176.646942 55.124195 
L 168.760519 53.062797 
z
" clip-path="url(#p7fdb246682)" style="fill: #1b699f"/>
    <path d="M 200.157542 127.155845 
L 200.268465 114.443569 
L 208.167756 116.740066 
L 207.991268 129.488395 
z
" clip-path="url(#p7fdb246682)" style="fill: #0d324b"/>
    <path d="M 167.953244 128.235882 
L 167.478041 89.405224 
L 176.814631 81.834386 
L 177.055978 120.277182 
z
" clip-path="url(#p7fdb246682)" style="fill: #1b699f"/>
    <path d="M 200.324618 108.008239 
L 208.257104 110.286138 
L 216.890888 102.479132 
L 209.039336 100.268652 
z
" clip-path="url(#p7fdb246682)" style="fill: #185b8a"/>
    <path d="M 150.856026 134.043458 
L 160.309556 125.914083 
L 167.953244 128.235882 
L 158.574283 136.436092 
z
" clip-path="url(#p7fdb246682)" style="fill: #113f60"/>
    <path d="M 215.893042 131.841207 
L 224.345004 123.776762 
L 224.810464 104.708764 
L 216.259362 112.584072 
z
" clip-path="url(#p7fdb246682)" style="fill: #0d324b"/>
    <path d="M 223.863755 134.214546 
L 232.233384 126.080115 
L 240.189854 128.403351 
L 231.904314 136.608683 
z
" clip-path="url(#p7fdb246682)" style="fill: #113f60"/>
    <path d="M 177.055978 120.277182 
L 184.69075 122.550492 
L 184.612606 63.986864 
L 176.689393 61.885935 
z
" clip-path="url(#p7fdb246682)" style="fill: #1b699f"/>
    <path d="M 184.69075 122.550492 
L 192.39099 124.843296 
L 192.557086 79.54328 
L 184.63048 77.38235 
z
" clip-path="url(#p7fdb246682)" style="fill: #1b699f"/>
    <path d="M 200.157542 127.155845 
L 207.991268 129.488395 
L 208.257104 110.286138 
L 200.324618 108.008239 
z
" clip-path="url(#p7fdb246682)" style="fill: #1b699f"/>
    <path d="M 167.953244 128.235882 
L 177.055978 120.277182 
L 176.773233 75.240329 
L 167.396495 82.741733 
z
" clip-path="url(#p7fdb246682)" style="fill: #0d324b"/>
    <path d="M 191.285243 135.323066 
L 200.157542 127.155845 
L 207.991268 129.488395 
L 199.199156 137.726947 
z
" clip-path="url(#p7fdb246682)" style="fill: #113f60"/>
    <path d="M 152.731262 123.612147 
L 151.732462 78.382875 
L 159.52984 80.552665 
L 160.309556 125.914083 
z
" clip-path="url(#p7fdb246682)" style="fill: #0d324b"/>
    <path d="M 167.953244 128.235882 
L 167.718609 109.062941 
L 175.524187 111.350105 
L 175.663175 130.577803 
z
" clip-path="url(#p7fdb246682)" style="fill: #0d324b"/>
    <path d="M 224.345004 123.776762 
L 225.449304 78.538022 
L 233.575289 80.709187 
L 232.233384 126.080115 
z
" clip-path="url(#p7fdb246682)" style="fill: #0d324b"/>
    <path d="M 207.991268 129.488395 
L 208.167756 116.740066 
L 216.136237 119.056679 
L 215.893042 131.841207 
z
" clip-path="url(#p7fdb246682)" style="fill: #0d324b"/>
    <path d="M 175.663175 130.577803 
L 184.69075 122.550492 
L 184.639306 83.996333 
L 175.381668 91.634087 
z
" clip-path="url(#p7fdb246682)" style="fill: #0d324b"/>
    <path d="M 208.257104 110.286138 
L 216.259362 112.584072 
L 224.810464 104.708764 
L 216.890888 102.479132 
z
" clip-path="url(#p7fdb246682)" style="fill: #185b8a"/>
    <path d="M 191.285243 135.323066 
L 191.323351 122.485274 
L 200.268465 114.443569 
L 200.157542 127.155845 
z
" clip-path="url(#p7fdb246682)" style="fill: #1b699f"/>
    <path d="M 158.574283 136.436092 
L 167.953244 128.235882 
L 175.663175 130.577803 
L 166.360449 138.849778 
z
" clip-path="url(#p7fdb246682)" style="fill: #113f60"/>
    <path d="M 231.904314 136.608683 
L 240.189854 128.403351 
L 248.215299 130.746727 
L 240.01564 139.02389 
z
" clip-path="url(#p7fdb246682)" style="fill: #113f60"/>
    <path d="M 184.69075 122.550492 
L 184.612606 63.986864 
L 192.606353 66.106494 
L 192.39099 124.843296 
z
" clip-path="url(#p7fdb246682)" style="fill: #0d324b"/>
    <path d="M 207.991268 129.488395 
L 215.893042 131.841207 
L 216.259362 112.584072 
L 208.257104 110.286138 
z
" clip-path="url(#p7fdb246682)" style="fill: #1b699f"/>
    <path d="M 199.199156 137.726947 
L 207.991268 129.488395 
L 215.893042 131.841207 
L 207.182863 140.152029 
z
" clip-path="url(#p7fdb246682)" style="fill: #113f60"/>
    <path d="M 160.943363 51.019506 
L 168.760519 53.062797 
L 178.051297 46.0604 
L 170.311089 44.078016 
z
" clip-path="url(#p7fdb246682)" style="fill: #185b8a"/>
    <path d="M 160.309556 125.914083 
L 167.953244 128.235882 
L 167.396495 82.741733 
L 159.52984 80.552665 
z
" clip-path="url(#p7fdb246682)" style="fill: #1b699f"/>
    <path d="M 192.39099 124.843296 
L 192.581615 72.853254 
L 200.612526 75.012805 
L 200.157542 127.155845 
z
" clip-path="url(#p7fdb246682)" style="fill: #0d324b"/>
    <path d="M 143.204794 131.671602 
L 142.84158 118.889677 
L 150.555319 121.225198 
L 150.856026 134.043458 
z
" clip-path="url(#p7fdb246682)" style="fill: #0d324b"/>
    <path d="M 232.233384 126.080115 
L 233.575289 80.709187 
L 241.773494 82.899649 
L 240.189854 128.403351 
z
" clip-path="url(#p7fdb246682)" style="fill: #0d324b"/>
    <path d="M 184.63048 77.38235 
L 192.557086 79.54328 
L 201.49525 72.137786 
L 193.648807 70.041311 
z
" clip-path="url(#p7fdb246682)" style="fill: #185b8a"/>
    <path d="M 143.204794 131.671602 
L 141.90647 85.982063 
L 151.732462 78.382875 
L 152.731262 123.612147 
z
" clip-path="url(#p7fdb246682)" style="fill: #1b699f"/>
    <path d="M 158.574283 136.436092 
L 158.217153 117.072505 
L 167.718609 109.062941 
L 167.953244 128.235882 
z
" clip-path="url(#p7fdb246682)" style="fill: #1b699f"/>
    <path d="M 215.893042 131.841207 
L 216.762357 86.142055 
L 225.449304 78.538022 
L 224.345004 123.776762 
z
" clip-path="url(#p7fdb246682)" style="fill: #1b699f"/>
    <path d="M 199.199156 137.726947 
L 207.991268 129.488395 
L 208.167756 116.740066 
L 199.304187 124.852595 
z
" clip-path="url(#p7fdb246682)" style="fill: #0d324b"/>
    <path d="M 199.199156 137.726947 
L 199.304187 124.852595 
L 208.167756 116.740066 
L 207.991268 129.488395 
z
" clip-path="url(#p7fdb246682)" style="fill: #1b699f"/>
    <path d="M 166.360449 138.849778 
L 175.663175 130.577803 
L 183.440215 132.940109 
L 174.215425 141.284794 
z
" clip-path="url(#p7fdb246682)" style="fill: #113f60"/>
    <path d="M 167.953244 128.235882 
L 175.663175 130.577803 
L 175.381668 91.634087 
L 167.478041 89.405224 
z
" clip-path="url(#p7fdb246682)" style="fill: #1b699f"/>
    <path d="M 175.663175 130.577803 
L 175.235483 71.410906 
L 184.612606 63.986864 
L 184.69075 122.550492 
z
" clip-path="url(#p7fdb246682)" style="fill: #1b699f"/>
    <path d="M 191.323351 122.485274 
L 199.304187 124.852595 
L 208.167756 116.740066 
L 200.268465 114.443569 
z
" clip-path="url(#p7fdb246682)" style="fill: #185b8a"/>
    <path d="M 133.387374 139.977203 
L 143.204794 131.671602 
L 150.856026 134.043458 
L 141.112494 142.422216 
z
" clip-path="url(#p7fdb246682)" style="fill: #113f60"/>
    <path d="M 207.182863 140.152029 
L 215.893042 131.841207 
L 223.863755 134.214546 
L 215.237294 142.598593 
z
" clip-path="url(#p7fdb246682)" style="fill: #113f60"/>
    <path d="M 168.760519 53.062797 
L 176.646942 55.124195 
L 185.859052 48.060084 
L 178.051297 46.0604 
z
" clip-path="url(#p7fdb246682)" style="fill: #185b8a"/>
    <path d="M 176.689393 61.885935 
L 184.612606 63.986864 
L 193.706192 56.787302 
L 185.86273 54.749283 
z
" clip-path="url(#p7fdb246682)" style="fill: #185b8a"/>
    <path d="M 215.893042 131.841207 
L 216.383524 106.057003 
L 224.491145 108.356081 
L 223.863755 134.214546 
z
" clip-path="url(#p7fdb246682)" style="fill: #0d324b"/>
    <path d="M 150.856026 134.043458 
L 160.309556 125.914083 
L 159.52984 80.552665 
L 149.781034 88.219745 
z
" clip-path="url(#p7fdb246682)" style="fill: #0d324b"/>
    <path d="M 183.440215 132.940109 
L 183.326756 80.417136 
L 192.581615 72.853254 
L 192.39099 124.843296 
z
" clip-path="url(#p7fdb246682)" style="fill: #1b699f"/>
    <path d="M 133.387374 139.977203 
L 132.935413 127.068786 
L 142.84158 118.889677 
L 143.204794 131.671602 
z
" clip-path="url(#p7fdb246682)" style="fill: #1b699f"/>
    <path d="M 166.360449 138.849778 
L 175.663175 130.577803 
L 175.524187 111.350105 
L 166.100867 119.430653 
z
" clip-path="url(#p7fdb246682)" style="fill: #0d324b"/>
    <path d="M 223.863755 134.214546 
L 232.233384 126.080115 
L 233.575289 80.709187 
L 224.975786 88.381177 
z
" clip-path="url(#p7fdb246682)" style="fill: #0d324b"/>
    <path d="M 223.863755 134.214546 
L 224.975786 88.381177 
L 233.575289 80.709187 
L 232.233384 126.080115 
z
" clip-path="url(#p7fdb246682)" style="fill: #1b699f"/>
    <path d="M 207.182863 140.152029 
L 215.893042 131.841207 
L 216.136237 119.056679 
L 207.356006 127.240971 
z
" clip-path="url(#p7fdb246682)" style="fill: #0d324b"/>
    <path d="M 174.215425 141.284794 
L 183.440215 132.940109 
L 191.285243 135.323066 
L 182.140126 143.741426 
z
" clip-path="url(#p7fdb246682)" style="fill: #113f60"/>
    <path d="M 160.309556 125.914083 
L 159.181416 60.282504 
L 167.14766 62.408516 
L 167.953244 128.235882 
z
" clip-path="url(#p7fdb246682)" style="fill: #0d324b"/>
    <path d="M 159.52984 80.552665 
L 167.396495 82.741733 
L 176.773233 75.240329 
L 168.984437 73.116969 
z
" clip-path="url(#p7fdb246682)" style="fill: #185b8a"/>
    <path d="M 191.285243 135.323066 
L 199.199156 137.726947 
L 199.304187 124.852595 
L 191.323351 122.485274 
z
" clip-path="url(#p7fdb246682)" style="fill: #1b699f"/>
    <path d="M 167.478041 89.405224 
L 175.381668 91.634087 
L 184.639306 83.996333 
L 176.814631 81.834386 
z
" clip-path="url(#p7fdb246682)" style="fill: #185b8a"/>
    <path d="M 183.440215 132.940109 
L 192.39099 124.843296 
L 192.606353 66.106494 
L 183.312024 73.597294 
z
" clip-path="url(#p7fdb246682)" style="fill: #0d324b"/>
    <path d="M 199.304187 124.852595 
L 207.356006 127.240971 
L 216.136237 119.056679 
L 208.167756 116.740066 
z
" clip-path="url(#p7fdb246682)" style="fill: #185b8a"/>
    <path d="M 141.112494 142.422216 
L 150.856026 134.043458 
L 158.574283 136.436092 
L 148.906328 144.888976 
z
" clip-path="url(#p7fdb246682)" style="fill: #113f60"/>
    <path d="M 215.237294 142.598593 
L 223.863755 134.214546 
L 231.904314 136.608683 
L 223.363391 145.066926 
z
" clip-path="url(#p7fdb246682)" style="fill: #113f60"/>
    <path d="M 240.189854 128.403351 
L 242.243349 69.399032 
L 250.587801 71.567226 
L 248.215299 130.746727 
z
" clip-path="url(#p7fdb246682)" style="fill: #0d324b"/>
    <path d="M 158.217153 117.072505 
L 166.100867 119.430653 
L 175.524187 111.350105 
L 167.718609 109.062941 
z
" clip-path="url(#p7fdb246682)" style="fill: #185b8a"/>
    <path d="M 191.285243 135.323066 
L 200.157542 127.155845 
L 200.612526 75.012805 
L 191.441613 82.644716 
z
" clip-path="url(#p7fdb246682)" style="fill: #0d324b"/>
    <path d="M 141.112494 142.422216 
L 150.856026 134.043458 
L 150.555319 121.225198 
L 140.724239 129.476958 
z
" clip-path="url(#p7fdb246682)" style="fill: #0d324b"/>
    <path d="M 231.904314 136.608683 
L 240.189854 128.403351 
L 241.773494 82.899649 
L 233.263352 90.64051 
z
" clip-path="url(#p7fdb246682)" style="fill: #0d324b"/>
    <path d="M 207.182863 140.152029 
L 207.532107 114.10926 
L 216.383524 106.057003 
L 215.893042 131.841207 
z
" clip-path="url(#p7fdb246682)" style="fill: #1b699f"/>
    <path d="M 182.140126 143.741426 
L 191.285243 135.323066 
L 199.199156 137.726947 
L 190.135485 146.21996 
z
" clip-path="url(#p7fdb246682)" style="fill: #113f60"/>
    <path d="M 143.204794 131.671602 
L 150.856026 134.043458 
L 149.781034 88.219745 
L 141.90647 85.982063 
z
" clip-path="url(#p7fdb246682)" style="fill: #1b699f"/>
    <path d="M 158.574283 136.436092 
L 166.360449 138.849778 
L 166.100867 119.430653 
L 158.217153 117.072505 
z
" clip-path="url(#p7fdb246682)" style="fill: #1b699f"/>
    <path d="M 215.893042 131.841207 
L 223.863755 134.214546 
L 224.975786 88.381177 
L 216.762357 86.142055 
z
" clip-path="url(#p7fdb246682)" style="fill: #1b699f"/>
    <path d="M 199.199156 137.726947 
L 207.182863 140.152029 
L 207.356006 127.240971 
L 199.304187 124.852595 
z
" clip-path="url(#p7fdb246682)" style="fill: #1b699f"/>
    <path d="M 150.856026 134.043458 
L 149.300354 67.729795 
L 159.181416 60.282504 
L 160.309556 125.914083 
z
" clip-path="url(#p7fdb246682)" style="fill: #1b699f"/>
    <path d="M 132.935413 127.068786 
L 140.724239 129.476958 
L 150.555319 121.225198 
L 142.84158 118.889677 
z
" clip-path="url(#p7fdb246682)" style="fill: #185b8a"/>
    <path d="M 148.906328 144.888976 
L 158.574283 136.436092 
L 166.360449 138.849778 
L 156.769798 147.377776 
z
" clip-path="url(#p7fdb246682)" style="fill: #113f60"/>
    <path d="M 223.363391 145.066926 
L 231.904314 136.608683 
L 240.01564 139.02389 
L 231.562115 147.55732 
z
" clip-path="url(#p7fdb246682)" style="fill: #113f60"/>
    <path d="M 150.856026 134.043458 
L 149.93853 94.933331 
L 157.850853 97.211703 
L 158.574283 136.436092 
z
" clip-path="url(#p7fdb246682)" style="fill: #0d324b"/>
    <path d="M 175.663175 130.577803 
L 183.440215 132.940109 
L 183.312024 73.597294 
L 175.235483 71.410906 
z
" clip-path="url(#p7fdb246682)" style="fill: #1b699f"/>
    <path d="M 223.863755 134.214546 
L 224.812862 95.096232 
L 233.064217 97.37607 
L 231.904314 136.608683 
z
" clip-path="url(#p7fdb246682)" style="fill: #0d324b"/>
    <path d="M 199.199156 137.726947 
L 199.35737 118.333625 
L 207.443682 120.703049 
L 207.182863 140.152029 
z
" clip-path="url(#p7fdb246682)" style="fill: #0d324b"/>
    <path d="M 231.904314 136.608683 
L 233.666804 76.99413 
L 242.243349 69.399032 
L 240.189854 128.403351 
z
" clip-path="url(#p7fdb246682)" style="fill: #1b699f"/>
    <path d="M 215.237294 142.598593 
L 223.863755 134.214546 
L 224.491145 108.356081 
L 215.726383 116.480497 
z
" clip-path="url(#p7fdb246682)" style="fill: #0d324b"/>
    <path d="M 190.135485 146.21996 
L 199.199156 137.726947 
L 207.182863 140.152029 
L 198.202452 148.720693 
z
" clip-path="url(#p7fdb246682)" style="fill: #113f60"/>
    <path d="M 175.663175 130.577803 
L 175.185916 64.553747 
L 183.297164 66.718457 
L 183.440215 132.940109 
z
" clip-path="url(#p7fdb246682)" style="fill: #0d324b"/>
    <path d="M 183.440215 132.940109 
L 191.285243 135.323066 
L 191.441613 82.644716 
L 183.326756 80.417136 
z
" clip-path="url(#p7fdb246682)" style="fill: #1b699f"/>
    <path d="M 133.387374 139.977203 
L 141.112494 142.422216 
L 140.724239 129.476958 
L 132.935413 127.068786 
z
" clip-path="url(#p7fdb246682)" style="fill: #1b699f"/>
    <path d="M 223.863755 134.214546 
L 231.904314 136.608683 
L 233.263352 90.64051 
L 224.975786 88.381177 
z
" clip-path="url(#p7fdb246682)" style="fill: #1b699f"/>
    <path d="M 207.182863 140.152029 
L 207.356006 127.240971 
L 215.479757 129.650684 
L 215.237294 142.598593 
z
" clip-path="url(#p7fdb246682)" style="fill: #0d324b"/>
    <path d="M 158.574283 136.436092 
L 167.953244 128.235882 
L 167.14766 62.408516 
L 157.347567 69.923509 
z
" clip-path="url(#p7fdb246682)" style="fill: #0d324b"/>
    <path d="M 156.769798 147.377776 
L 166.360449 138.849778 
L 174.215425 141.284794 
L 164.70384 149.888913 
z
" clip-path="url(#p7fdb246682)" style="fill: #113f60"/>
    <path d="M 183.440215 132.940109 
L 183.312024 73.597294 
L 191.46192 75.80354 
L 191.285243 135.323066 
z
" clip-path="url(#p7fdb246682)" style="fill: #0d324b"/>
    <path d="M 141.90647 85.982063 
L 149.781034 88.219745 
L 159.52984 80.552665 
L 151.732462 78.382875 
z
" clip-path="url(#p7fdb246682)" style="fill: #185b8a"/>
    <path d="M 216.762357 86.142055 
L 224.975786 88.381177 
L 233.575289 80.709187 
L 225.449304 78.538022 
z
" clip-path="url(#p7fdb246682)" style="fill: #185b8a"/>
    <path d="M 141.112494 142.422216 
L 139.927566 102.914187 
L 149.93853 94.933331 
L 150.856026 134.043458 
z
" clip-path="url(#p7fdb246682)" style="fill: #1b699f"/>
    <path d="M 123.265468 148.540403 
L 133.387374 139.977203 
L 141.112494 142.422216 
L 131.065408 151.062008 
z
" clip-path="url(#p7fdb246682)" style="fill: #113f60"/>
    <path d="M 215.237294 142.598593 
L 215.977279 103.082256 
L 224.812862 95.096232 
L 223.863755 134.214546 
z
" clip-path="url(#p7fdb246682)" style="fill: #1b699f"/>
    <path d="M 190.135485 146.21996 
L 190.179207 126.63288 
L 199.35737 118.333625 
L 199.199156 137.726947 
z
" clip-path="url(#p7fdb246682)" style="fill: #1b699f"/>
    <path d="M 240.01564 139.02389 
L 248.215299 130.746727 
L 250.587801 71.567226 
L 242.104227 79.231406 
z
" clip-path="url(#p7fdb246682)" style="fill: #0d324b"/>
    <path d="M 198.202452 148.720693 
L 207.182863 140.152029 
L 215.237294 142.598593 
L 206.341993 151.243924 
z
" clip-path="url(#p7fdb246682)" style="fill: #113f60"/>
    <path d="M 174.215425 141.284794 
L 174.055143 121.809908 
L 182.080934 124.210554 
L 182.140126 143.741426 
z
" clip-path="url(#p7fdb246682)" style="fill: #0d324b"/>
    <path d="M 231.904314 136.608683 
L 233.263352 90.64051 
L 241.626065 92.92033 
L 240.01564 139.02389 
z
" clip-path="url(#p7fdb246682)" style="fill: #0d324b"/>
    <path d="M 207.182863 140.152029 
L 215.237294 142.598593 
L 215.726383 116.480497 
L 207.532107 114.10926 
z
" clip-path="url(#p7fdb246682)" style="fill: #1b699f"/>
    <path d="M 207.532107 114.10926 
L 215.726383 116.480497 
L 224.491145 108.356081 
L 216.383524 106.057003 
z
" clip-path="url(#p7fdb246682)" style="fill: #185b8a"/>
    <path d="M 166.360449 138.849778 
L 165.468681 72.137368 
L 175.185916 64.553747 
L 175.663175 130.577803 
z
" clip-path="url(#p7fdb246682)" style="fill: #1b699f"/>
    <path d="M 198.202452 148.720693 
L 198.301025 135.681365 
L 207.356006 127.240971 
L 207.182863 140.152029 
z
" clip-path="url(#p7fdb246682)" style="fill: #1b699f"/>
    <path d="M 164.70384 149.888913 
L 174.215425 141.284794 
L 182.140126 143.741426 
L 172.70941 152.422688 
z
" clip-path="url(#p7fdb246682)" style="fill: #113f60"/>
    <path d="M 150.856026 134.043458 
L 158.574283 136.436092 
L 157.347567 69.923509 
L 149.300354 67.729795 
z
" clip-path="url(#p7fdb246682)" style="fill: #1b699f"/>
    <path d="M 224.975786 88.381177 
L 233.263352 90.64051 
L 241.773494 82.899649 
L 233.575289 80.709187 
z
" clip-path="url(#p7fdb246682)" style="fill: #185b8a"/>
    <path d="M 148.906328 144.888976 
L 158.574283 136.436092 
L 157.850853 97.211703 
L 147.919285 105.264996 
z
" clip-path="url(#p7fdb246682)" style="fill: #0d324b"/>
    <path d="M 174.215425 141.284794 
L 173.721957 81.326444 
L 183.312024 73.597294 
L 183.440215 132.940109 
z
" clip-path="url(#p7fdb246682)" style="fill: #1b699f"/>
    <path d="M 131.065408 151.062008 
L 141.112494 142.422216 
L 148.906328 144.888976 
L 138.935813 153.606394 
z
" clip-path="url(#p7fdb246682)" style="fill: #113f60"/>
    <path d="M 223.363391 145.066926 
L 231.904314 136.608683 
L 233.064217 97.37607 
L 224.318783 105.434602 
z
" clip-path="url(#p7fdb246682)" style="fill: #0d324b"/>
    <path d="M 198.202452 148.720693 
L 207.182863 140.152029 
L 207.443682 120.703049 
L 198.35095 129.077183 
z
" clip-path="url(#p7fdb246682)" style="fill: #0d324b"/>
    <path d="M 206.341993 151.243924 
L 215.237294 142.598593 
L 223.363391 145.066926 
L 214.555091 153.789957 
z
" clip-path="url(#p7fdb246682)" style="fill: #113f60"/>
    <path d="M 158.574283 136.436092 
L 157.475025 76.834284 
L 165.561353 79.070096 
L 166.360449 138.849778 
z
" clip-path="url(#p7fdb246682)" style="fill: #0d324b"/>
    <path d="M 175.235483 71.410906 
L 183.312024 73.597294 
L 192.606353 66.106494 
L 184.612606 63.986864 
z
" clip-path="url(#p7fdb246682)" style="fill: #185b8a"/>
    <path d="M 191.285243 135.323066 
L 191.482404 68.902914 
L 199.742652 71.107389 
L 199.199156 137.726947 
z
" clip-path="url(#p7fdb246682)" style="fill: #0d324b"/>
    <path d="M 183.326756 80.417136 
L 191.441613 82.644716 
L 200.612526 75.012805 
L 192.581615 72.853254 
z
" clip-path="url(#p7fdb246682)" style="fill: #185b8a"/>
    <path d="M 231.904314 136.608683 
L 240.01564 139.02389 
L 242.104227 79.231406 
L 233.666804 76.99413 
z
" clip-path="url(#p7fdb246682)" style="fill: #1b699f"/>
    <path d="M 174.215425 141.284794 
L 183.440215 132.940109 
L 183.297164 66.718457 
L 173.664718 74.371651 
z
" clip-path="url(#p7fdb246682)" style="fill: #0d324b"/>
    <path d="M 164.70384 149.888913 
L 164.417469 130.219137 
L 174.055143 121.809908 
L 174.215425 141.284794 
z
" clip-path="url(#p7fdb246682)" style="fill: #1b699f"/>
    <path d="M 223.363391 145.066926 
L 224.482883 98.627262 
L 233.263352 90.64051 
L 231.904314 136.608683 
z
" clip-path="url(#p7fdb246682)" style="fill: #1b699f"/>
    <path d="M 206.341993 151.243924 
L 215.237294 142.598593 
L 215.479757 129.650684 
L 206.511373 138.167247 
z
" clip-path="url(#p7fdb246682)" style="fill: #0d324b"/>
    <path d="M 172.70941 152.422688 
L 182.140126 143.741426 
L 190.135485 146.21996 
L 180.787478 154.979409 
z
" clip-path="url(#p7fdb246682)" style="fill: #113f60"/>
    <path d="M 141.112494 142.422216 
L 140.129309 109.640722 
L 148.087353 112.011919 
L 148.906328 144.888976 
z
" clip-path="url(#p7fdb246682)" style="fill: #0d324b"/>
    <path d="M 190.179207 126.63288 
L 198.35095 129.077183 
L 207.443682 120.703049 
L 199.35737 118.333625 
z
" clip-path="url(#p7fdb246682)" style="fill: #185b8a"/>
    <path d="M 182.140126 143.741426 
L 191.285243 135.323066 
L 191.46192 75.80354 
L 181.957866 83.603613 
z
" clip-path="url(#p7fdb246682)" style="fill: #0d324b"/>
    <path d="M 198.301025 135.681365 
L 206.511373 138.167247 
L 215.479757 129.650684 
L 207.356006 127.240971 
z
" clip-path="url(#p7fdb246682)" style="fill: #185b8a"/>
    <path d="M 138.935813 153.606394 
L 148.906328 144.888976 
L 156.769798 147.377776 
L 146.877643 156.17387 
z
" clip-path="url(#p7fdb246682)" style="fill: #113f60"/>
    <path d="M 214.555091 153.789957 
L 223.363391 145.066926 
L 231.562115 147.55732 
L 222.842748 156.359103 
z
" clip-path="url(#p7fdb246682)" style="fill: #113f60"/>
    <path d="M 141.112494 142.422216 
L 148.906328 144.888976 
L 147.919285 105.264996 
L 139.927566 102.914187 
z
" clip-path="url(#p7fdb246682)" style="fill: #1b699f"/>
    <path d="M 215.237294 142.598593 
L 223.363391 145.066926 
L 224.318783 105.434602 
L 215.977279 103.082256 
z
" clip-path="url(#p7fdb246682)" style="fill: #1b699f"/>
    <path d="M 190.135485 146.21996 
L 198.202452 148.720693 
L 198.35095 129.077183 
L 190.179207 126.63288 
z
" clip-path="url(#p7fdb246682)" style="fill: #1b699f"/>
    <path d="M 148.906328 144.888976 
L 147.406199 84.667606 
L 157.475025 76.834284 
L 158.574283 136.436092 
z
" clip-path="url(#p7fdb246682)" style="fill: #1b699f"/>
    <path d="M 182.140126 143.741426 
L 181.936721 76.626644 
L 191.482404 68.902914 
L 191.285243 135.323066 
z
" clip-path="url(#p7fdb246682)" style="fill: #1b699f"/>
    <path d="M 172.70941 152.422688 
L 182.140126 143.741426 
L 182.080934 124.210554 
L 172.526207 132.696158 
z
" clip-path="url(#p7fdb246682)" style="fill: #0d324b"/>
    <path d="M 231.562115 147.55732 
L 240.01564 139.02389 
L 241.626065 92.92033 
L 232.938586 100.980245 
z
" clip-path="url(#p7fdb246682)" style="fill: #0d324b"/>
    <path d="M 180.787478 154.979409 
L 190.135485 146.21996 
L 198.202452 148.720693 
L 188.939035 157.559389 
z
" clip-path="url(#p7fdb246682)" style="fill: #113f60"/>
    <path d="M 166.360449 138.849778 
L 165.468681 72.137368 
L 173.664718 74.371651 
L 174.215425 141.284794 
z
" clip-path="url(#p7fdb246682)" style="fill: #0d324b"/>
    <path d="M 166.360449 138.849778 
L 174.215425 141.284794 
L 173.664718 74.371651 
L 165.468681 72.137368 
z
" clip-path="url(#p7fdb246682)" style="fill: #1b699f"/>
    <path d="M 215.237294 142.598593 
L 216.104364 96.295757 
L 224.482883 98.627262 
L 223.363391 145.066926 
z
" clip-path="url(#p7fdb246682)" style="fill: #0d324b"/>
    <path d="M 190.135485 146.21996 
L 190.194033 119.991024 
L 198.401308 122.415676 
L 198.202452 148.720693 
z
" clip-path="url(#p7fdb246682)" style="fill: #0d324b"/>
    <path d="M 198.202452 148.720693 
L 206.341993 151.243924 
L 206.511373 138.167247 
L 198.301025 135.681365 
z
" clip-path="url(#p7fdb246682)" style="fill: #1b699f"/>
    <path d="M 131.065408 151.062008 
L 129.846667 117.947797 
L 140.129309 109.640722 
L 141.112494 142.422216 
z
" clip-path="url(#p7fdb246682)" style="fill: #1b699f"/>
    <path d="M 146.877643 156.17387 
L 156.769798 147.377776 
L 164.70384 149.888913 
L 154.891875 158.764753 
z
" clip-path="url(#p7fdb246682)" style="fill: #113f60"/>
    <path d="M 133.387374 139.977203 
L 131.048322 73.171745 
L 139.102826 75.415604 
L 141.112494 142.422216 
z
" clip-path="url(#p7fdb246682)" style="fill: #0d324b"/>
    <path d="M 174.215425 141.284794 
L 182.140126 143.741426 
L 181.957866 83.603613 
L 173.721957 81.326444 
z
" clip-path="url(#p7fdb246682)" style="fill: #1b699f"/>
    <path d="M 164.70384 149.888913 
L 164.513749 136.832269 
L 172.587803 139.328629 
L 172.70941 152.422688 
z
" clip-path="url(#p7fdb246682)" style="fill: #0d324b"/>
    <path d="M 223.363391 145.066926 
L 224.318783 105.434602 
L 232.736793 107.808524 
L 231.562115 147.55732 
z
" clip-path="url(#p7fdb246682)" style="fill: #0d324b"/>
    <path d="M 139.927566 102.914187 
L 147.919285 105.264996 
L 157.850853 97.211703 
L 149.93853 94.933331 
z
" clip-path="url(#p7fdb246682)" style="fill: #185b8a"/>
    <path d="M 215.977279 103.082256 
L 224.318783 105.434602 
L 233.064217 97.37607 
L 224.812862 95.096232 
z
" clip-path="url(#p7fdb246682)" style="fill: #185b8a"/>
    <path d="M 164.417469 130.219137 
L 172.526207 132.696158 
L 182.080934 124.210554 
L 174.055143 121.809908 
z
" clip-path="url(#p7fdb246682)" style="fill: #185b8a"/>
    <path d="M 156.769798 147.377776 
L 166.360449 138.849778 
L 165.561353 79.070096 
L 155.575878 86.975783 
z
" clip-path="url(#p7fdb246682)" style="fill: #0d324b"/>
    <path d="M 190.135485 146.21996 
L 199.199156 137.726947 
L 199.742652 71.107389 
L 190.285749 78.902633 
z
" clip-path="url(#p7fdb246682)" style="fill: #0d324b"/>
    <path d="M 188.939035 157.559389 
L 198.202452 148.720693 
L 206.341993 151.243924 
L 197.165087 160.162947 
z
" clip-path="url(#p7fdb246682)" style="fill: #113f60"/>
    <path d="M 149.300354 67.729795 
L 157.347567 69.923509 
L 167.14766 62.408516 
L 159.181416 60.282504 
z
" clip-path="url(#p7fdb246682)" style="fill: #185b8a"/>
    <path d="M 182.140126 143.741426 
L 181.978826 90.519519 
L 190.254639 92.839611 
L 190.135485 146.21996 
z
" clip-path="url(#p7fdb246682)" style="fill: #0d324b"/>
    <path d="M 164.70384 149.888913 
L 172.70941 152.422688 
L 172.526207 132.696158 
L 164.417469 130.219137 
z
" clip-path="url(#p7fdb246682)" style="fill: #1b699f"/>
    <path d="M 223.363391 145.066926 
L 231.562115 147.55732 
L 232.938586 100.980245 
L 224.482883 98.627262 
z
" clip-path="url(#p7fdb246682)" style="fill: #1b699f"/>
    <path d="M 198.202452 148.720693 
L 198.401308 122.415676 
L 206.683708 124.862521 
L 206.341993 151.243924 
z
" clip-path="url(#p7fdb246682)" style="fill: #0d324b"/>
    <path d="M 233.666804 76.99413 
L 242.104227 79.231406 
L 250.587801 71.567226 
L 242.243349 69.399032 
z
" clip-path="url(#p7fdb246682)" style="fill: #185b8a"/>
    <path d="M 156.769798 147.377776 
L 155.437323 79.96614 
L 165.468681 72.137368 
L 166.360449 138.849778 
z
" clip-path="url(#p7fdb246682)" style="fill: #1b699f"/>
    <path d="M 138.935813 153.606394 
L 148.906328 144.888976 
L 148.087353 112.011919 
L 137.884505 120.395262 
z
" clip-path="url(#p7fdb246682)" style="fill: #0d324b"/>
    <path d="M 206.341993 151.243924 
L 206.947919 104.464617 
L 216.104364 96.295757 
L 215.237294 142.598593 
z
" clip-path="url(#p7fdb246682)" style="fill: #1b699f"/>
    <path d="M 180.787478 154.979409 
L 180.682837 128.485624 
L 190.194033 119.991024 
L 190.135485 146.21996 
z
" clip-path="url(#p7fdb246682)" style="fill: #1b699f"/>
    <path d="M 154.891875 158.764753 
L 164.70384 149.888913 
L 172.70941 152.422688 
L 162.979503 161.379363 
z
" clip-path="url(#p7fdb246682)" style="fill: #113f60"/>
    <path d="M 206.341993 151.243924 
L 206.597166 131.543761 
L 214.918879 134.032922 
L 214.555091 153.789957 
z
" clip-path="url(#p7fdb246682)" style="fill: #0d324b"/>
    <path d="M 123.265468 148.540403 
L 120.437645 81.034262 
L 131.048322 73.171745 
L 133.387374 139.977203 
z
" clip-path="url(#p7fdb246682)" style="fill: #1b699f"/>
    <path d="M 154.891875 158.764753 
L 154.612797 145.577894 
L 164.513749 136.832269 
L 164.70384 149.888913 
z
" clip-path="url(#p7fdb246682)" style="fill: #1b699f"/>
    <path d="M 214.555091 153.789957 
L 215.292312 113.752098 
L 224.318783 105.434602 
L 223.363391 145.066926 
z
" clip-path="url(#p7fdb246682)" style="fill: #1b699f"/>
    <path d="M 197.165087 160.162947 
L 206.341993 151.243924 
L 214.555091 153.789957 
L 205.46666 162.790407 
z
" clip-path="url(#p7fdb246682)" style="fill: #113f60"/>
    <path d="M 148.906328 144.888976 
L 156.769798 147.377776 
L 155.575878 86.975783 
L 147.406199 84.667606 
z
" clip-path="url(#p7fdb246682)" style="fill: #1b699f"/>
    <path d="M 182.140126 143.741426 
L 190.135485 146.21996 
L 190.285749 78.902633 
L 181.936721 76.626644 
z
" clip-path="url(#p7fdb246682)" style="fill: #1b699f"/>
    <path d="M 164.70384 149.888913 
L 174.215425 141.284794 
L 173.664718 74.371651 
L 163.719431 82.273406 
z
" clip-path="url(#p7fdb246682)" style="fill: #0d324b"/>
    <path d="M 172.70941 152.422688 
L 172.210006 98.648999 
L 181.978826 90.519519 
L 182.140126 143.741426 
z
" clip-path="url(#p7fdb246682)" style="fill: #1b699f"/>
    <path d="M 214.555091 153.789957 
L 223.363391 145.066926 
L 224.482883 98.627262 
L 215.419 106.871809 
z
" clip-path="url(#p7fdb246682)" style="fill: #0d324b"/>
    <path d="M 188.939035 157.559389 
L 188.977688 130.988475 
L 198.401308 122.415676 
L 198.202452 148.720693 
z
" clip-path="url(#p7fdb246682)" style="fill: #1b699f"/>
    <path d="M 188.939035 157.559389 
L 198.202452 148.720693 
L 198.401308 122.415676 
L 188.977688 130.988475 
z
" clip-path="url(#p7fdb246682)" style="fill: #0d324b"/>
    <path d="M 162.979503 161.379363 
L 172.70941 152.422688 
L 180.787478 154.979409 
L 171.14154 164.018029 
z
" clip-path="url(#p7fdb246682)" style="fill: #113f60"/>
    <path d="M 148.906328 144.888976 
L 147.232144 77.680305 
L 155.437323 79.96614 
L 156.769798 147.377776 
z
" clip-path="url(#p7fdb246682)" style="fill: #0d324b"/>
    <path d="M 131.065408 151.062008 
L 138.935813 153.606394 
L 137.884505 120.395262 
L 129.846667 117.947797 
z
" clip-path="url(#p7fdb246682)" style="fill: #1b699f"/>
    <path d="M 224.482883 98.627262 
L 232.938586 100.980245 
L 241.626065 92.92033 
L 233.263352 90.64051 
z
" clip-path="url(#p7fdb246682)" style="fill: #185b8a"/>
    <path d="M 131.065408 151.062008 
L 141.112494 142.422216 
L 139.102826 75.415604 
L 128.573382 83.351577 
z
" clip-path="url(#p7fdb246682)" style="fill: #0d324b"/>
    <path d="M 162.979503 161.379363 
L 172.70941 152.422688 
L 172.587803 139.328629 
L 162.770316 148.1546 
z
" clip-path="url(#p7fdb246682)" style="fill: #0d324b"/>
    <path d="M 222.842748 156.359103 
L 231.562115 147.55732 
L 232.736793 107.808524 
L 223.804148 116.203099 
z
" clip-path="url(#p7fdb246682)" style="fill: #0d324b"/>
    <path d="M 197.165087 160.162947 
L 197.302928 140.26484 
L 206.597166 131.543761 
L 206.341993 151.243924 
z
" clip-path="url(#p7fdb246682)" style="fill: #1b699f"/>
    <path d="M 205.46666 162.790407 
L 214.555091 153.789957 
L 222.842748 156.359103 
L 213.8448 165.442101 
z
" clip-path="url(#p7fdb246682)" style="fill: #113f60"/>
    <path d="M 165.468681 72.137368 
L 173.664718 74.371651 
L 183.297164 66.718457 
L 175.185916 64.553747 
z
" clip-path="url(#p7fdb246682)" style="fill: #185b8a"/>
    <path d="M 173.721957 81.326444 
L 181.957866 83.603613 
L 191.46192 75.80354 
L 183.312024 73.597294 
z
" clip-path="url(#p7fdb246682)" style="fill: #185b8a"/>
    <path d="M 129.846667 117.947797 
L 137.884505 120.395262 
L 148.087353 112.011919 
L 140.129309 109.640722 
z
" clip-path="url(#p7fdb246682)" style="fill: #185b8a"/>
    <path d="M 154.612797 145.577894 
L 162.770316 148.1546 
L 172.587803 139.328629 
L 164.513749 136.832269 
z
" clip-path="url(#p7fdb246682)" style="fill: #185b8a"/>
    <path d="M 180.787478 154.979409 
L 190.135485 146.21996 
L 190.254639 92.839611 
L 180.574455 101.04491 
z
" clip-path="url(#p7fdb246682)" style="fill: #0d324b"/>
    <path d="M 197.165087 160.162947 
L 206.341993 151.243924 
L 206.683708 124.862521 
L 197.349689 133.514604 
z
" clip-path="url(#p7fdb246682)" style="fill: #0d324b"/>
    <path d="M 171.14154 164.018029 
L 180.787478 154.979409 
L 188.939035 157.559389 
L 179.379018 166.681084 
z
" clip-path="url(#p7fdb246682)" style="fill: #113f60"/>
    <path d="M 156.769798 147.377776 
L 155.437323 79.96614 
L 163.719431 82.273406 
L 164.70384 149.888913 
z
" clip-path="url(#p7fdb246682)" style="fill: #0d324b"/>
    <path d="M 156.769798 147.377776 
L 164.70384 149.888913 
L 163.719431 82.273406 
L 155.437323 79.96614 
z
" clip-path="url(#p7fdb246682)" style="fill: #1b699f"/>
    <path d="M 206.341993 151.243924 
L 214.555091 153.789957 
L 215.419 106.871809 
L 206.947919 104.464617 
z
" clip-path="url(#p7fdb246682)" style="fill: #1b699f"/>
    <path d="M 180.787478 154.979409 
L 188.939035 157.559389 
L 188.977688 130.988475 
L 180.682837 128.485624 
z
" clip-path="url(#p7fdb246682)" style="fill: #1b699f"/>
    <path d="M 214.555091 153.789957 
L 215.166739 120.571852 
L 223.640374 123.04366 
L 222.842748 156.359103 
z
" clip-path="url(#p7fdb246682)" style="fill: #0d324b"/>
    <path d="M 180.682837 128.485624 
L 188.977688 130.988475 
L 198.401308 122.415676 
L 190.194033 119.991024 
z
" clip-path="url(#p7fdb246682)" style="fill: #185b8a"/>
    <path d="M 138.935813 153.606394 
L 136.785923 85.690767 
L 147.232144 77.680305 
L 148.906328 144.888976 
z
" clip-path="url(#p7fdb246682)" style="fill: #1b699f"/>
    <path d="M 205.46666 162.790407 
L 214.555091 153.789957 
L 214.918879 134.032922 
L 205.715496 142.834674 
z
" clip-path="url(#p7fdb246682)" style="fill: #0d324b"/>
    <path d="M 123.265468 148.540403 
L 131.065408 151.062008 
L 128.573382 83.351577 
L 120.437645 81.034262 
z
" clip-path="url(#p7fdb246682)" style="fill: #1b699f"/>
    <path d="M 172.70941 152.422688 
L 172.274366 105.579016 
L 180.601912 107.996627 
L 180.787478 154.979409 
z
" clip-path="url(#p7fdb246682)" style="fill: #0d324b"/>
    <path d="M 180.787478 154.979409 
L 180.6561 121.716177 
L 188.987566 124.198639 
L 188.939035 157.559389 
z
" clip-path="url(#p7fdb246682)" style="fill: #0d324b"/>
    <path d="M 154.891875 158.764753 
L 162.979503 161.379363 
L 162.770316 148.1546 
L 154.612797 145.577894 
z
" clip-path="url(#p7fdb246682)" style="fill: #1b699f"/>
    <path d="M 214.555091 153.789957 
L 222.842748 156.359103 
L 223.804148 116.203099 
L 215.292312 113.752098 
z
" clip-path="url(#p7fdb246682)" style="fill: #1b699f"/>
    <path d="M 179.379018 166.681084 
L 188.939035 157.559389 
L 197.165087 160.162947 
L 187.692988 169.368867 
z
" clip-path="url(#p7fdb246682)" style="fill: #113f60"/>
    <path d="M 147.406199 84.667606 
L 155.575878 86.975783 
L 165.561353 79.070096 
L 157.475025 76.834284 
z
" clip-path="url(#p7fdb246682)" style="fill: #185b8a"/>
    <path d="M 172.70941 152.422688 
L 180.787478 154.979409 
L 180.574455 101.04491 
L 172.210006 98.648999 
z
" clip-path="url(#p7fdb246682)" style="fill: #1b699f"/>
    <path d="M 188.939035 157.559389 
L 197.165087 160.162947 
L 197.349689 133.514604 
L 188.977688 130.988475 
z
" clip-path="url(#p7fdb246682)" style="fill: #1b699f"/>
    <path d="M 188.977688 130.988475 
L 197.349689 133.514604 
L 206.683708 124.862521 
L 198.401308 122.415676 
z
" clip-path="url(#p7fdb246682)" style="fill: #185b8a"/>
    <path d="M 146.877643 156.17387 
L 145.076361 88.052145 
L 155.437323 79.96614 
L 156.769798 147.377776 
z
" clip-path="url(#p7fdb246682)" style="fill: #1b699f"/>
    <path d="M 146.877643 156.17387 
L 156.769798 147.377776 
L 155.437323 79.96614 
L 145.076361 88.052145 
z
" clip-path="url(#p7fdb246682)" style="fill: #0d324b"/>
    <path d="M 197.302928 140.26484 
L 205.715496 142.834674 
L 214.918879 134.032922 
L 206.597166 131.543761 
z
" clip-path="url(#p7fdb246682)" style="fill: #185b8a"/>
    <path d="M 205.46666 162.790407 
L 205.885095 129.233466 
L 215.166739 120.571852 
L 214.555091 153.789957 
z
" clip-path="url(#p7fdb246682)" style="fill: #1b699f"/>
    <path d="M 181.936721 76.626644 
L 190.285749 78.902633 
L 199.742652 71.107389 
L 191.482404 68.902914 
z
" clip-path="url(#p7fdb246682)" style="fill: #185b8a"/>
    <path d="M 197.165087 160.162947 
L 205.46666 162.790407 
L 205.715496 142.834674 
L 197.302928 140.26484 
z
" clip-path="url(#p7fdb246682)" style="fill: #1b699f"/>
    <path d="M 206.947919 104.464617 
L 215.419 106.871809 
L 224.482883 98.627262 
L 216.104364 96.295757 
z
" clip-path="url(#p7fdb246682)" style="fill: #185b8a"/>
    <path d="M 215.292312 113.752098 
L 223.804148 116.203099 
L 232.736793 107.808524 
L 224.318783 105.434602 
z
" clip-path="url(#p7fdb246682)" style="fill: #185b8a"/>
    <path d="M 162.979503 161.379363 
L 162.230877 114.051338 
L 172.274366 105.579016 
L 172.70941 152.422688 
z
" clip-path="url(#p7fdb246682)" style="fill: #1b699f"/>
    <path d="M 171.14154 164.018029 
L 170.791932 130.415341 
L 180.6561 121.716177 
L 180.787478 154.979409 
z
" clip-path="url(#p7fdb246682)" style="fill: #1b699f"/>
    <path d="M 187.692988 169.368867 
L 197.165087 160.162947 
L 205.46666 162.790407 
L 196.084519 172.081725 
z
" clip-path="url(#p7fdb246682)" style="fill: #113f60"/>
    <path d="M 154.891875 158.764753 
L 164.70384 149.888913 
L 163.719431 82.273406 
L 153.44581 90.436028 
z
" clip-path="url(#p7fdb246682)" style="fill: #0d324b"/>
    <path d="M 213.8448 165.442101 
L 222.842748 156.359103 
L 223.640374 123.04366 
L 214.453371 131.786489 
z
" clip-path="url(#p7fdb246682)" style="fill: #0d324b"/>
    <path d="M 138.935813 153.606394 
L 146.877643 156.17387 
L 145.076361 88.052145 
L 136.785923 85.690767 
z
" clip-path="url(#p7fdb246682)" style="fill: #1b699f"/>
    <path d="M 188.939035 157.559389 
L 189.007586 110.436919 
L 197.492491 112.900214 
L 197.165087 160.162947 
z
" clip-path="url(#p7fdb246682)" style="fill: #0d324b"/>
    <path d="M 171.14154 164.018029 
L 180.787478 154.979409 
L 180.601912 107.996627 
L 170.647663 116.548902 
z
" clip-path="url(#p7fdb246682)" style="fill: #0d324b"/>
    <path d="M 179.379018 166.681084 
L 188.939035 157.559389 
L 188.987566 124.198639 
L 179.213167 132.979548 
z
" clip-path="url(#p7fdb246682)" style="fill: #0d324b"/>
    <path d="M 196.084519 172.081725 
L 205.46666 162.790407 
L 213.8448 165.442101 
L 204.554703 174.82001 
z
" clip-path="url(#p7fdb246682)" style="fill: #113f60"/>
    <path d="M 155.437323 79.96614 
L 163.719431 82.273406 
L 173.664718 74.371651 
L 165.468681 72.137368 
z
" clip-path="url(#p7fdb246682)" style="fill: #185b8a"/>
    <path d="M 172.210006 98.648999 
L 180.574455 101.04491 
L 190.254639 92.839611 
L 181.978826 90.519519 
z
" clip-path="url(#p7fdb246682)" style="fill: #185b8a"/>
    <path d="M 120.437645 81.034262 
L 128.573382 83.351577 
L 139.102826 75.415604 
L 131.048322 73.171745 
z
" clip-path="url(#p7fdb246682)" style="fill: #185b8a"/>
    <path d="M 146.877643 156.17387 
L 154.891875 158.764753 
L 153.44581 90.436028 
L 145.076361 88.052145 
z
" clip-path="url(#p7fdb246682)" style="fill: #1b699f"/>
    <path d="M 205.46666 162.790407 
L 213.8448 165.442101 
L 214.453371 131.786489 
L 205.885095 129.233466 
z
" clip-path="url(#p7fdb246682)" style="fill: #1b699f"/>
    <path d="M 179.379018 166.681084 
L 179.144717 119.070284 
L 189.007586 110.436919 
L 188.939035 157.559389 
z
" clip-path="url(#p7fdb246682)" style="fill: #1b699f"/>
    <path d="M 162.979503 161.379363 
L 171.14154 164.018029 
L 170.647663 116.548902 
L 162.230877 114.051338 
z
" clip-path="url(#p7fdb246682)" style="fill: #1b699f"/>
    <path d="M 171.14154 164.018029 
L 179.379018 166.681084 
L 179.213167 132.979548 
L 170.791932 130.415341 
z
" clip-path="url(#p7fdb246682)" style="fill: #1b699f"/>
    <path d="M 205.885095 129.233466 
L 214.453371 131.786489 
L 223.640374 123.04366 
L 215.166739 120.571852 
z
" clip-path="url(#p7fdb246682)" style="fill: #185b8a"/>
    <path d="M 197.165087 160.162947 
L 197.589849 98.84598 
L 206.233557 101.288085 
L 205.46666 162.790407 
z
" clip-path="url(#p7fdb246682)" style="fill: #0d324b"/>
    <path d="M 170.791932 130.415341 
L 179.213167 132.979548 
L 188.987566 124.198639 
L 180.6561 121.716177 
z
" clip-path="url(#p7fdb246682)" style="fill: #185b8a"/>
    <path d="M 187.692988 169.368867 
L 197.165087 160.162947 
L 197.492491 112.900214 
L 187.723194 121.615827 
z
" clip-path="url(#p7fdb246682)" style="fill: #0d324b"/>
    <path d="M 205.46666 162.790407 
L 206.145258 108.369405 
L 214.831813 110.85758 
L 213.8448 165.442101 
z
" clip-path="url(#p7fdb246682)" style="fill: #0d324b"/>
    <path d="M 136.785923 85.690767 
L 145.076361 88.052145 
L 155.437323 79.96614 
L 147.232144 77.680305 
z
" clip-path="url(#p7fdb246682)" style="fill: #185b8a"/>
    <path d="M 162.230877 114.051338 
L 170.647663 116.548902 
L 180.601912 107.996627 
L 172.274366 105.579016 
z
" clip-path="url(#p7fdb246682)" style="fill: #185b8a"/>
    <path d="M 187.692988 169.368867 
L 187.732182 107.406475 
L 197.589849 98.84598 
L 197.165087 160.162947 
z
" clip-path="url(#p7fdb246682)" style="fill: #1b699f"/>
    <path d="M 179.379018 166.681084 
L 187.692988 169.368867 
L 187.723194 121.615827 
L 179.144717 119.070284 
z
" clip-path="url(#p7fdb246682)" style="fill: #1b699f"/>
    <path d="M 196.084519 172.081725 
L 196.42867 117.091417 
L 206.145258 108.369405 
L 205.46666 162.790407 
z
" clip-path="url(#p7fdb246682)" style="fill: #1b699f"/>
    <path d="M 145.076361 88.052145 
L 153.44581 90.436028 
L 163.719431 82.273406 
L 155.437323 79.96614 
z
" clip-path="url(#p7fdb246682)" style="fill: #185b8a"/>
    <path d="M 196.084519 172.081725 
L 205.46666 162.790407 
L 206.233557 101.288085 
L 196.47348 109.931279 
z
" clip-path="url(#p7fdb246682)" style="fill: #0d324b"/>
    <path d="M 204.554703 174.82001 
L 213.8448 165.442101 
L 214.831813 110.85758 
L 205.214245 119.663871 
z
" clip-path="url(#p7fdb246682)" style="fill: #0d324b"/>
    <path d="M 179.144717 119.070284 
L 187.723194 121.615827 
L 197.492491 112.900214 
L 189.007586 110.436919 
z
" clip-path="url(#p7fdb246682)" style="fill: #185b8a"/>
    <path d="M 187.692988 169.368867 
L 196.084519 172.081725 
L 196.47348 109.931279 
L 187.732182 107.406475 
z
" clip-path="url(#p7fdb246682)" style="fill: #1b699f"/>
    <path d="M 196.084519 172.081725 
L 204.554703 174.82001 
L 205.214245 119.663871 
L 196.42867 117.091417 
z
" clip-path="url(#p7fdb246682)" style="fill: #1b699f"/>
    <path d="M 187.732182 107.406475 
L 196.47348 109.931279 
L 206.233557 101.288085 
L 197.589849 98.84598 
z
" clip-path="url(#p7fdb246682)" style="fill: #185b8a"/>
    <path d="M 196.42867 117.091417 
L 205.214245 119.663871 
L 214.831813 110.85758 
L 206.145258 108.369405 
z
" clip-path="url(#p7fdb246682)" style="fill: #185b8a"/>
   </g>
  </g>
 </g>
 <defs>
  <clipPath id="p7fdb246682">
   <rect x="101.34" y="25.92" width="166.32" height="166.32"/>
  </clipPath>
 </defs>
</svg>
